<?xml version="1.0" encoding="UTF-8" standalone="no"?>
<!DOCTYPE svg PUBLIC "-//W3C//DTD SVG 1.1//EN" "http://www.w3.org/Graphics/SVG/1.1/DTD/svg11.dtd">
<svg width="100%" height="100%" viewBox="0 0 256 256" version="1.1" xmlns="http://www.w3.org/2000/svg" xmlns:xlink="http://www.w3.org/1999/xlink" xml:space="preserve" xmlns:serif="http://www.serif.com/" style="fill-rule:evenodd;clip-rule:evenodd;stroke-linejoin:round;stroke-miterlimit:2;">
    <g transform="matrix(6.50628,0,0,6.50628,-31.4662,-32.7386)">
        <path d="M34.895,25.272C34.354,24.96 33.686,24.96 33.145,25.272L26.89,28.883C26.349,29.195 26.015,29.774 26.015,30.399L26.015,37.621C26.015,38.246 26.348,38.824 26.89,39.137L33.145,42.748C33.686,43.06 34.354,43.06 34.895,42.748L41.15,39.137C41.691,38.825 42.025,38.246 42.025,37.621L42.025,30.4C42.025,29.775 41.691,29.196 41.15,28.884L34.895,25.272Z" style="fill:url(#_Linear1);fill-rule:nonzero;"/>
        <path d="M14,26C9.611,26 6,29.611 6,34C6,38.389 9.611,42 14,42C18.389,42 22,38.389 22,34C22,29.611 18.389,26 14,26" style="fill:url(#_Linear2);fill-rule:nonzero;"/>
        <path d="M30.75,6C28.144,6 26,8.144 26,10.75L26,17.25C26,19.856 28.144,22 30.75,22L37.25,22C39.856,22 42,19.856 42,17.25L42,10.75C42,8.144 39.856,6 37.25,6L30.75,6Z" style="fill:url(#_Linear3);fill-rule:nonzero;"/>
        <path d="M16.904,7.797C15.7,5.4 12.31,5.4 11.105,7.797L6.362,17.229C5.262,19.413 6.835,22 9.262,22L18.749,22C21.175,22 22.747,19.413 21.648,17.229L16.904,7.797Z" style="fill:url(#_Linear4);fill-rule:nonzero;"/>
        <g transform="matrix(0.153698,0,0,0.233888,4.52889,-10.3847)">
            <circle cx="47.5" cy="186.5" r="11.5" style="fill:rgb(235,235,235);"/>
        </g>
        <g transform="matrix(0.153698,0,0,0.233888,8.98613,-10.3847)">
            <circle cx="47.5" cy="186.5" r="11.5" style="fill:rgb(235,235,235);"/>
        </g>
        <g transform="matrix(0.100238,0,0,0.120285,7.06824,11.6475)">
            <circle cx="47.5" cy="186.5" r="11.5" style="fill:rgb(0,76,114);"/>
        </g>
        <g transform="matrix(0.100238,0,0,0.120285,11.5255,11.6475)">
            <circle cx="47.5" cy="186.5" r="11.5" style="fill:rgb(0,76,114);"/>
        </g>
    </g>
    <defs>
        <linearGradient id="_Linear1" x1="0" y1="0" x2="1" y2="0" gradientUnits="userSpaceOnUse" gradientTransform="matrix(22.067,22.473,-22.473,22.067,16.676,17.56)"><stop offset="0" style="stop-color:rgb(82,209,124);stop-opacity:1"/><stop offset="1" style="stop-color:rgb(34,145,139);stop-opacity:1"/></linearGradient>
        <linearGradient id="_Linear2" x1="0" y1="0" x2="1" y2="0" gradientUnits="userSpaceOnUse" gradientTransform="matrix(16,16,-16,16,6,26)"><stop offset="0" style="stop-color:rgb(15,175,255);stop-opacity:1"/><stop offset="1" style="stop-color:rgb(39,100,231);stop-opacity:1"/></linearGradient>
        <linearGradient id="_Linear3" x1="0" y1="0" x2="1" y2="0" gradientUnits="userSpaceOnUse" gradientTransform="matrix(19.667,25.5,-25.5,19.667,19.333,-2)"><stop offset="0" style="stop-color:rgb(255,205,15);stop-opacity:1"/><stop offset="1" style="stop-color:rgb(254,132,1);stop-opacity:1"/></linearGradient>
        <linearGradient id="_Linear4" x1="0" y1="0" x2="1" y2="0" gradientUnits="userSpaceOnUse" gradientTransform="matrix(11.042,11.472,-11.472,11.042,6.576,9)"><stop offset="0" style="stop-color:rgb(242,74,157);stop-opacity:1"/><stop offset="1" style="stop-color:rgb(215,37,125);stop-opacity:1"/></linearGradient>
    </defs>
</svg>
